# xmcd
#
# Track frame offsets:
#	150
#	21520
#	45623
#	61467
#	89909
#	108732
#	127466
#	144964
#	160905
#	181225
#	196595
#	211503
#	234358
#	251393
#	267325
#	284981
#	306771
#	324601
#
# Disc length: 4555
#
# Revision: 1
# Processed by: cddbd v1.5.1PL0 Copyright (c) Steve Scherf et al.
# Submitted via: ExactAudioCopy v0.90b3
# Normalized: r0:DSETVAR1
#
DISCID=1211c912
DTITLE=Various Artist - Romantic Ballads vol. 2
DYEAR=2002
DGENRE=Ballad
TTITLE0=Smash! - Belle
TTITLE1=Sarah Connor - Imagining
TTITLE2=No Angels - Still In Love With You
TTITLE3=Darren Hayes - Like It Or Not
TTITLE4=Mylene Farmer - C'Est Une Belle Journee
TTITLE5=Enrique Iglesias - Love To See You Cry
TTITLE6=Gareth Gates - Forever Blue
TTITLE7=Ms. Dynamite - Brother
TTITLE8=No Mercy - Baby I Was Made For Loving You
TTITLE9=Blue - Girl I'll Never Under Stand
TTITLE10=Amber - Don't Say Goodbye
TTITLE11=Tiziano Ferro - Imbranato
TTITLE12=Paulina Rubio - The One You Love
TTITLE13=Celine Dion - I'm Alive
TTITLE14=David Charvet - If I Don't Tell You Soon
TTITLE15=Boys II Men - The Color Of Love
TTITLE16=Christina Milian - Until I Get Over You
TTITLE17=Ronan Keating - Time For Love
EXTD=
EXTT0=
EXTT1=
EXTT2=
EXTT3=
EXTT4=
EXTT5=
EXTT6=
EXTT7=
EXTT8=
EXTT9=
EXTT10=
EXTT11=
EXTT12=
EXTT13=
EXTT14=
EXTT15=
EXTT16=
EXTT17=
PLAYORDER=
